# 3ds Max Wavefront OBJ Exporter v0.97b - (c)2007 guruware
# File Created: 08.02.2018 21:43:36

mtllib Shovel.mtl

#
# object RR_Shovel01_Spade_001
#

v  -1.3780 8.4363 14.7638
v  -1.3780 0.0000 -0.0000
v  1.3780 0.0000 -0.0000
v  1.3780 8.4363 14.7638
v  -1.3780 8.4363 -14.7638
v  1.3780 8.4363 -14.7638
v  -1.3780 31.4961 14.7638
v  1.3780 31.4961 14.7638
v  0.1969 31.4961 -0.0000
v  -2.5591 31.4961 -0.0000
v  1.3780 31.4961 -14.7638
v  -1.3780 31.4961 -14.7638
# 12 vertices

vn -0.6097 -0.3979 0.6856
vn -0.5995 -0.8004 -0.0000
vn 0.6216 -0.7833 -0.0000
vn 0.6097 -0.3979 0.6856
vn -0.6097 -0.3979 -0.6856
vn 0.6097 -0.3979 -0.6856
vn -0.5517 0.5817 0.5977
vn 0.6020 0.5733 0.5559
vn 0.6745 0.7382 -0.0000
vn -0.7370 0.6759 -0.0000
vn 0.6020 0.5733 -0.5559
vn -0.5517 0.5817 -0.5977
# 12 vertex normals

vt 1.0000 0.0000 0.0000
vt 1.0000 0.5000 0.0000
vt 0.0000 0.5000 0.0000
vt 0.0000 0.0000 0.0000
vt 1.0000 1.0000 0.0000
vt 0.0000 1.0000 0.0000
vt 0.5000 0.0000 0.0000
vt 0.5000 1.0000 0.0000
# 8 texture coords

o RR_Shovel01_Spade_001
g RR_Shovel01_Spade_001
usemtl wire_135110008
s 2
f 1/1/1 2/2/2 3/3/3 4/4/4 
f 2/2/2 5/5/5 6/6/6 3/3/3 
s 4
f 7/4/7 8/1/8 9/2/9 10/3/10 
f 10/3/10 9/2/9 11/5/11 12/6/12 
s 8
f 1/4/1 4/1/4 8/5/8 7/6/7 
s 16
f 4/4/4 3/7/3 9/8/9 8/6/8 
f 3/7/3 6/1/6 11/5/11 9/8/9 
s 32
f 6/4/6 5/1/5 12/5/12 11/6/11 
s 64
f 5/4/5 2/7/2 10/8/10 12/6/12 
f 2/7/2 1/1/1 7/5/7 10/8/10 
# 10 polygons

#
# object RR_Shovel01_Handle_001
#

v  -0.7484 18.6933 0.0073
v  0.3639 19.6346 -0.4377
v  0.4458 19.6346 0.0002
v  0.1293 19.6346 -0.8165
v  -0.2262 19.6346 -1.0850
v  -0.6547 19.6346 -1.2069
v  -1.0984 19.6346 -1.1658
v  -1.4972 19.6346 -0.9672
v  -1.7974 19.6346 -0.6380
v  -1.9583 19.6346 -0.2225
v  -1.9583 19.6346 0.2230
v  -1.7974 19.6346 0.6385
v  -1.4972 19.6346 0.9677
v  -1.0984 19.6346 1.1663
v  -0.6547 19.6346 1.2074
v  -0.2262 19.6346 1.0855
v  0.1293 19.6346 0.8170
v  0.3639 19.6346 0.4382
v  1.2249 20.6735 -0.7713
v  1.3691 20.6735 0.0002
v  0.8117 20.6735 -1.4386
v  0.1854 20.6735 -1.9116
v  -0.5695 20.6735 -2.1264
v  -1.3511 20.6735 -2.0540
v  -2.0537 20.6735 -1.7041
v  -2.5824 20.6735 -1.1241
v  -2.8660 20.6735 -0.3922
v  -2.8660 20.6735 0.3927
v  -2.5824 20.6735 1.1246
v  -2.0537 20.6735 1.7046
v  -1.3511 20.6735 2.0544
v  -0.5695 20.6735 2.1269
v  0.1854 20.6735 1.9121
v  0.8117 20.6735 1.4391
v  1.2249 20.6735 0.7718
v  1.1129 41.1396 -0.8887
v  1.2790 41.1396 -0.0000
v  0.6369 41.1396 -1.6573
v  -0.0846 41.1396 -2.2022
v  -0.9541 41.1396 -2.4496
v  -1.8543 41.1396 -2.3662
v  -2.6636 41.1396 -1.9632
v  -3.2727 41.1396 -1.2951
v  -3.5993 41.1396 -0.4520
v  -3.5993 41.1396 0.4520
v  -3.2727 41.1396 1.2951
v  -2.6636 41.1396 1.9632
v  -1.8543 41.1396 2.3662
v  -0.9541 41.1396 2.4496
v  -0.0846 41.1396 2.2022
v  0.6369 41.1396 1.6573
v  1.1129 41.1396 0.8887
v  0.9832 103.4359 -0.0000
v  0.8370 103.4359 -0.7818
v  0.1379 104.3815 -0.5110
v  0.2334 104.3815 0.0000
v  0.4183 103.4359 -1.4581
v  -0.1358 104.3815 -0.9529
v  -0.2164 103.4359 -1.9374
v  -0.5506 104.3815 -1.2662
v  -0.9814 103.4359 -2.1550
v  -1.0506 104.3815 -1.4085
v  -1.7734 103.4359 -2.0816
v  -1.5682 104.3815 -1.3605
v  -2.4854 103.4359 -1.7271
v  -2.0335 104.3815 -1.1288
v  -3.0212 103.4359 -1.1393
v  -2.3837 104.3815 -0.7446
v  -3.3085 103.4359 -0.3977
v  -2.5715 104.3815 -0.2599
v  -3.3085 103.4359 0.3977
v  -2.5715 104.3815 0.2599
v  -3.0212 103.4359 1.1393
v  -2.3837 104.3815 0.7446
v  -2.4854 103.4359 1.7271
v  -2.0335 104.3815 1.1288
v  -1.7734 103.4359 2.0816
v  -1.5682 104.3815 1.3605
v  -0.9814 103.4359 2.1550
v  -1.0506 104.3815 1.4085
v  -0.2164 103.4359 1.9374
v  -0.5506 104.3815 1.2662
v  0.4183 103.4359 1.4581
v  -0.1358 104.3815 0.9529
v  0.8370 103.4359 0.7818
v  0.1379 104.3815 0.5110
v  -1.1811 104.9828 -0.0000
v  0.8267 58.6347 -0.7778
v  0.9721 58.6347 -0.0000
v  0.4101 58.6347 -1.4506
v  -0.2213 58.6347 -1.9275
v  -0.9824 58.6347 -2.1440
v  -1.7704 58.6347 -2.0710
v  -2.4787 58.6347 -1.7183
v  -3.0118 58.6347 -1.1335
v  -3.2976 58.6347 -0.3956
v  -3.2976 58.6347 0.3956
v  -3.0118 58.6347 1.1335
v  -2.4787 58.6347 1.7183
v  -1.7704 58.6347 2.0710
v  -0.9824 58.6347 2.1440
v  -0.2213 58.6347 1.9275
v  0.4101 58.6347 1.4506
v  0.8267 58.6347 0.7778
v  0.8267 84.6507 -0.7778
v  0.9721 84.6507 -0.0000
v  0.4101 84.6507 -1.4506
v  -0.2213 84.6507 -1.9275
v  -0.9824 84.6507 -2.1440
v  -1.7704 84.6507 -2.0710
v  -2.4787 84.6507 -1.7183
v  -3.0118 84.6507 -1.1335
v  -3.2976 84.6507 -0.3956
v  -3.2976 84.6507 0.3956
v  -3.0118 84.6507 1.1335
v  -2.4787 84.6507 1.7183
v  -1.7704 84.6507 2.0710
v  -0.9824 84.6507 2.1440
v  -0.2213 84.6507 1.9275
v  0.4101 84.6507 1.4506
v  0.8267 84.6507 0.7778
v  1.0979 98.7554 -0.8829
v  1.2630 98.7554 -0.0000
v  0.6251 98.7554 -1.6466
v  -0.0917 98.7554 -2.1878
v  -0.9556 98.7554 -2.4336
v  -1.8500 98.7554 -2.3508
v  -2.6540 98.7554 -1.9504
v  -3.2591 98.7554 -1.2866
v  -3.5836 98.7554 -0.4491
v  -3.5836 98.7554 0.4491
v  -3.2591 98.7554 1.2866
v  -2.6540 98.7554 1.9504
v  -1.8500 98.7554 2.3508
v  -0.9556 98.7554 2.4336
v  -0.0917 98.7554 2.1878
v  0.6251 98.7554 1.6466
v  1.0979 98.7554 0.8829
# 138 vertices

vn 0.0074 -1.0000 0.0029
vn 0.6441 -0.7230 -0.2498
vn 0.6913 -0.7225 -0.0001
vn 0.5097 -0.7238 -0.4651
vn 0.3068 -0.7246 -0.6171
vn 0.0631 -0.7255 -0.6853
vn -0.1884 -0.7263 -0.6610
vn -0.4140 -0.7269 -0.5479
vn -0.5836 -0.7272 -0.3613
vn -0.6747 -0.7272 -0.1262
vn -0.6751 -0.7269 0.1260
vn -0.5846 -0.7263 0.3616
vn -0.4150 -0.7255 0.5490
vn -0.1889 -0.7246 0.6627
vn 0.0633 -0.7238 0.6871
vn 0.3077 -0.7230 0.6185
vn 0.5108 -0.7225 0.4658
vn 0.6448 -0.7224 0.2498
vn 0.8768 -0.3408 -0.3392
vn 0.9403 -0.3402 0.0000
vn 0.6949 -0.3427 -0.6323
vn 0.4193 -0.3455 -0.8395
vn 0.0878 -0.3488 -0.9331
vn -0.2549 -0.3523 -0.9005
vn -0.5625 -0.3554 -0.7466
vn -0.7936 -0.3577 -0.4922
vn -0.9174 -0.3590 -0.1717
vn -0.9174 -0.3590 0.1717
vn -0.7936 -0.3577 0.4922
vn -0.5625 -0.3554 0.7466
vn -0.2549 -0.3523 0.9005
vn 0.0878 -0.3488 0.9331
vn 0.4194 -0.3454 0.8395
vn 0.6949 -0.3427 0.6323
vn 0.8768 -0.3408 0.3392
vn 0.9323 0.0103 -0.3616
vn 0.9999 0.0110 -0.0000
vn 0.7384 0.0083 -0.6743
vn 0.4448 0.0053 -0.8956
vn 0.0911 0.0017 -0.9958
vn -0.2748 -0.0019 -0.9615
vn -0.6034 -0.0053 -0.7974
vn -0.8505 -0.0077 -0.5259
vn -0.9830 -0.0091 -0.1835
vn -0.9830 -0.0091 0.1835
vn -0.8505 -0.0077 0.5259
vn -0.6034 -0.0052 0.7974
vn -0.2748 -0.0019 0.9615
vn 0.0911 0.0018 0.9958
vn 0.4448 0.0053 0.8956
vn 0.7384 0.0083 0.6743
vn 0.9323 0.0103 0.3616
vn 0.9383 0.3458 -0.0000
vn 0.8750 0.3458 -0.3390
vn 0.5817 0.7816 -0.2253
vn 0.6238 0.7816 -0.0000
vn 0.6934 0.3458 -0.6321
vn 0.4610 0.7816 -0.4203
vn 0.4182 0.3458 -0.8399
vn 0.2781 0.7816 -0.5584
vn 0.0866 0.3458 -0.9343
vn 0.0576 0.7816 -0.6211
vn -0.2568 0.3458 -0.9025
vn -0.1707 0.7816 -0.6000
vn -0.5655 0.3458 -0.7488
vn -0.3759 0.7816 -0.4978
vn -0.7978 0.3458 -0.4940
vn -0.5304 0.7816 -0.3284
vn -0.9223 0.3458 -0.1724
vn -0.6132 0.7816 -0.1146
vn -0.9223 0.3458 0.1724
vn -0.6132 0.7816 0.1146
vn -0.7978 0.3458 0.4940
vn -0.5304 0.7816 0.3284
vn -0.5655 0.3458 0.7488
vn -0.3759 0.7816 0.4978
vn -0.2568 0.3458 0.9025
vn -0.1707 0.7816 0.6000
vn 0.0866 0.3458 0.9343
vn 0.0576 0.7816 0.6211
vn 0.4182 0.3458 0.8399
vn 0.2781 0.7816 0.5584
vn 0.6934 0.3458 0.6321
vn 0.4610 0.7816 0.4203
vn 0.8750 0.3458 0.3390
vn 0.5817 0.7816 0.2253
vn 0.0000 1.0000 0.0000
vn 0.9324 0.0088 -0.3612
vn 1.0000 0.0088 -0.0000
vn 0.7390 0.0088 -0.6737
vn 0.4457 0.0088 -0.8951
vn 0.0923 0.0088 -0.9957
vn -0.2737 0.0088 -0.9618
vn -0.6026 0.0088 -0.7980
vn -0.8502 0.0088 -0.5264
vn -0.9829 0.0088 -0.1838
vn -0.9829 0.0088 0.1837
vn -0.8502 0.0088 0.5264
vn -0.6026 0.0088 0.7980
vn -0.2736 0.0088 0.9618
vn 0.0923 0.0088 0.9957
vn 0.4457 0.0088 0.8951
vn 0.7390 0.0088 0.6737
vn 0.9324 0.0088 0.3612
vn 0.9324 -0.0103 -0.3612
vn 0.9999 -0.0103 -0.0000
vn 0.7390 -0.0103 -0.6737
vn 0.4457 -0.0103 -0.8951
vn 0.0923 -0.0103 -0.9957
vn -0.2737 -0.0103 -0.9618
vn -0.6026 -0.0103 -0.7980
vn -0.8502 -0.0103 -0.5264
vn -0.9829 -0.0103 -0.1837
vn -0.9829 -0.0103 0.1837
vn -0.8502 -0.0103 0.5264
vn -0.6026 -0.0103 0.7980
vn -0.2736 -0.0103 0.9618
vn 0.0923 -0.0103 0.9957
vn 0.4457 -0.0103 0.8951
vn 0.7390 -0.0103 0.6737
vn 0.9324 -0.0103 0.3612
vn 0.9323 0.0195 -0.3612
vn 0.9998 0.0195 -0.0000
vn 0.7389 0.0195 -0.6736
vn 0.4457 0.0195 -0.8950
vn 0.0923 0.0195 -0.9955
vn -0.2736 0.0195 -0.9616
vn -0.6025 0.0195 -0.7979
vn -0.8501 0.0195 -0.5263
vn -0.9828 0.0195 -0.1837
vn -0.9828 0.0195 0.1837
vn -0.8501 0.0195 0.5263
vn -0.6025 0.0195 0.7979
vn -0.2736 0.0195 0.9616
vn 0.0923 0.0195 0.9955
vn 0.4457 0.0195 0.8950
vn 0.7389 0.0195 0.6736
vn 0.9323 0.0195 0.3612
# 138 vertex normals

vt 0.5032 0.0000 0.0084
vt 0.8088 0.0000 0.5000
vt 0.7500 0.0000 0.5000
vt 0.8676 0.0000 0.5000
vt 0.9265 0.0000 0.5000
vt 0.9853 0.0000 0.5000
vt 0.0441 0.0000 0.5000
vt -0.0147 0.0000 0.5000
vt 0.1029 0.0000 0.5000
vt 0.1618 0.0000 0.5000
vt 0.2206 0.0000 0.5000
vt 0.2794 0.0000 0.5000
vt 0.3382 0.0000 0.5000
vt 0.3971 0.0000 0.5000
vt 0.4559 0.0000 0.5000
vt 0.5147 0.0000 0.5000
vt 0.5735 0.0000 0.5000
vt 0.6324 0.0000 0.5000
vt 0.6912 0.0000 0.5000
vt 0.8088 0.0000 1.0000
vt 0.7500 0.0000 1.0000
vt 0.8676 0.0000 1.0000
vt 0.9265 0.0000 1.0000
vt 0.9853 0.0000 1.0000
vt 0.0441 0.0000 1.0000
vt -0.0147 0.0000 1.0000
vt 0.1029 0.0000 1.0000
vt 0.1618 0.0000 1.0000
vt 0.2206 0.0000 1.0000
vt 0.2794 0.0000 1.0000
vt 0.3382 0.0000 1.0000
vt 0.3971 0.0000 1.0000
vt 0.4559 0.0000 1.0000
vt 0.5147 0.0000 1.0000
vt 0.5735 0.0000 1.0000
vt 0.6324 0.0000 1.0000
vt 0.6912 0.0000 1.0000
vt 0.8088 0.2465 1.0000
vt 0.7500 0.2465 1.0000
vt 0.8676 0.2465 1.0000
vt 0.9265 0.2465 1.0000
vt 0.9853 0.2465 1.0000
vt 0.0441 0.2465 1.0000
vt -0.0147 0.2465 1.0000
vt 0.1029 0.2465 1.0000
vt 0.1618 0.2465 1.0000
vt 0.2206 0.2465 1.0000
vt 0.2794 0.2465 1.0000
vt 0.3382 0.2465 1.0000
vt 0.3971 0.2465 1.0000
vt 0.4559 0.2465 1.0000
vt 0.5147 0.2465 1.0000
vt 0.5735 0.2465 1.0000
vt 0.6324 0.2465 1.0000
vt 0.6912 0.2465 1.0000
vt 0.7500 1.0000 1.0000
vt 0.8088 1.0000 1.0000
vt 0.8088 1.0000 0.5000
vt 0.7500 1.0000 0.5000
vt 0.8676 1.0000 1.0000
vt 0.8676 1.0000 0.5000
vt 0.9265 1.0000 1.0000
vt 0.9265 1.0000 0.5000
vt 0.9853 1.0000 1.0000
vt 0.9853 1.0000 0.5000
vt -0.0147 1.0000 1.0000
vt 0.0441 1.0000 1.0000
vt 0.0441 1.0000 0.5000
vt -0.0147 1.0000 0.5000
vt 0.1029 1.0000 1.0000
vt 0.1029 1.0000 0.5000
vt 0.1618 1.0000 1.0000
vt 0.1618 1.0000 0.5000
vt 0.2206 1.0000 1.0000
vt 0.2206 1.0000 0.5000
vt 0.2794 1.0000 1.0000
vt 0.2794 1.0000 0.5000
vt 0.3382 1.0000 1.0000
vt 0.3382 1.0000 0.5000
vt 0.3971 1.0000 1.0000
vt 0.3971 1.0000 0.5000
vt 0.4559 1.0000 1.0000
vt 0.4559 1.0000 0.5000
vt 0.5147 1.0000 1.0000
vt 0.5147 1.0000 0.5000
vt 0.5735 1.0000 1.0000
vt 0.5735 1.0000 0.5000
vt 0.6324 1.0000 1.0000
vt 0.6324 1.0000 0.5000
vt 0.6912 1.0000 1.0000
vt 0.6912 1.0000 0.5000
vt 0.5000 1.0000 0.0000
vt 0.8088 0.4581 1.0000
vt 0.7500 0.4581 1.0000
vt 0.8676 0.4581 1.0000
vt 0.9265 0.4581 1.0000
vt 0.9853 0.4581 1.0000
vt 0.0441 0.4581 1.0000
vt -0.0147 0.4581 1.0000
vt 0.1029 0.4581 1.0000
vt 0.1618 0.4581 1.0000
vt 0.2206 0.4581 1.0000
vt 0.2794 0.4581 1.0000
vt 0.3382 0.4581 1.0000
vt 0.3971 0.4581 1.0000
vt 0.4559 0.4581 1.0000
vt 0.5147 0.4581 1.0000
vt 0.5735 0.4581 1.0000
vt 0.6324 0.4581 1.0000
vt 0.6912 0.4581 1.0000
vt 0.8088 0.7728 1.0000
vt 0.7500 0.7728 1.0000
vt 0.8676 0.7728 1.0000
vt 0.9265 0.7728 1.0000
vt 0.9853 0.7728 1.0000
vt 0.0441 0.7728 1.0000
vt -0.0147 0.7728 1.0000
vt 0.1029 0.7728 1.0000
vt 0.1618 0.7728 1.0000
vt 0.2206 0.7728 1.0000
vt 0.2794 0.7728 1.0000
vt 0.3382 0.7728 1.0000
vt 0.3971 0.7728 1.0000
vt 0.4559 0.7728 1.0000
vt 0.5147 0.7728 1.0000
vt 0.5735 0.7728 1.0000
vt 0.6324 0.7728 1.0000
vt 0.6912 0.7728 1.0000
vt 0.8088 0.9434 1.0000
vt 0.7500 0.9434 1.0000
vt 0.8676 0.9434 1.0000
vt 0.9265 0.9434 1.0000
vt 0.9853 0.9434 1.0000
vt 0.0441 0.9434 1.0000
vt -0.0147 0.9434 1.0000
vt 0.1029 0.9434 1.0000
vt 0.1618 0.9434 1.0000
vt 0.2206 0.9434 1.0000
vt 0.2794 0.9434 1.0000
vt 0.3382 0.9434 1.0000
vt 0.3971 0.9434 1.0000
vt 0.4559 0.9434 1.0000
vt 0.5147 0.9434 1.0000
vt 0.5735 0.9434 1.0000
vt 0.6324 0.9434 1.0000
vt 0.6912 0.9434 1.0000
# 146 texture coords

o RR_Shovel01_Handle_001
g RR_Shovel01_Handle_001
usemtl wire_006135058
s 1
f 13/9/13 14/10/14 15/11/15 
f 13/9/13 16/12/16 14/10/14 
f 13/9/13 17/13/17 16/12/16 
f 13/9/13 18/14/18 17/13/17 
f 13/9/13 19/15/19 18/16/18 
f 13/9/13 20/17/20 19/15/19 
f 13/9/13 21/18/21 20/17/20 
f 13/9/13 22/19/22 21/18/21 
f 13/9/13 23/20/23 22/19/22 
f 13/9/13 24/21/24 23/20/23 
f 13/9/13 25/22/25 24/21/24 
f 13/9/13 26/23/26 25/22/25 
f 13/9/13 27/24/27 26/23/26 
f 13/9/13 28/25/28 27/24/27 
f 13/9/13 29/26/29 28/25/28 
f 13/9/13 30/27/30 29/26/29 
f 13/9/13 15/11/15 30/27/30 
f 15/11/15 14/10/14 31/28/31 32/29/32 
f 14/10/14 16/12/16 33/30/33 31/28/31 
f 16/12/16 17/13/17 34/31/34 33/30/33 
f 17/13/17 18/14/18 35/32/35 34/31/34 
f 18/16/18 19/15/19 36/33/36 35/34/35 
f 19/15/19 20/17/20 37/35/37 36/33/36 
f 20/17/20 21/18/21 38/36/38 37/35/37 
f 21/18/21 22/19/22 39/37/39 38/36/38 
f 22/19/22 23/20/23 40/38/40 39/37/39 
f 23/20/23 24/21/24 41/39/41 40/38/40 
f 24/21/24 25/22/25 42/40/42 41/39/41 
f 25/22/25 26/23/26 43/41/43 42/40/42 
f 26/23/26 27/24/27 44/42/44 43/41/43 
f 27/24/27 28/25/28 45/43/45 44/42/44 
f 28/25/28 29/26/29 46/44/46 45/43/45 
f 29/26/29 30/27/30 47/45/47 46/44/46 
f 30/27/30 15/11/15 32/29/32 47/45/47 
s 8
f 32/29/32 31/28/31 48/46/48 49/47/49 
f 31/28/31 33/30/33 50/48/50 48/46/48 
f 33/30/33 34/31/34 51/49/51 50/48/50 
f 34/31/34 35/32/35 52/50/52 51/49/51 
f 35/34/35 36/33/36 53/51/53 52/52/52 
f 36/33/36 37/35/37 54/53/54 53/51/53 
f 37/35/37 38/36/38 55/54/55 54/53/54 
f 38/36/38 39/37/39 56/55/56 55/54/55 
f 39/37/39 40/38/40 57/56/57 56/55/56 
f 40/38/40 41/39/41 58/57/58 57/56/57 
f 41/39/41 42/40/42 59/58/59 58/57/58 
f 42/40/42 43/41/43 60/59/60 59/58/59 
f 43/41/43 44/42/44 61/60/61 60/59/60 
f 44/42/44 45/43/45 62/61/62 61/60/61 
f 45/43/45 46/44/46 63/62/63 62/61/62 
f 46/44/46 47/45/47 64/63/64 63/62/63 
f 47/45/47 32/29/32 49/47/49 64/63/64 
s 1
f 65/64/65 66/65/66 67/66/67 68/67/68 
f 66/65/66 69/68/69 70/69/70 67/66/67 
f 69/68/69 71/70/71 72/71/72 70/69/70 
f 71/70/71 73/72/73 74/73/74 72/71/72 
f 73/74/73 75/75/75 76/76/76 74/77/74 
f 75/75/75 77/78/77 78/79/78 76/76/76 
f 77/78/77 79/80/79 80/81/80 78/79/78 
f 79/80/79 81/82/81 82/83/82 80/81/80 
f 81/82/81 83/84/83 84/85/84 82/83/82 
f 83/84/83 85/86/85 86/87/86 84/85/84 
f 85/86/85 87/88/87 88/89/88 86/87/86 
f 87/88/87 89/90/89 90/91/90 88/89/88 
f 89/90/89 91/92/91 92/93/92 90/91/90 
f 91/92/91 93/94/93 94/95/94 92/93/92 
f 93/94/93 95/96/95 96/97/96 94/95/94 
f 95/96/95 97/98/97 98/99/98 96/97/96 
f 97/98/97 65/64/65 68/67/68 98/99/98 
f 99/100/99 68/67/68 67/66/67 
f 99/100/99 67/66/67 70/69/70 
f 99/100/99 70/69/70 72/71/72 
f 99/100/99 72/71/72 74/73/74 
f 99/100/99 74/77/74 76/76/76 
f 99/100/99 76/76/76 78/79/78 
f 99/100/99 78/79/78 80/81/80 
f 99/100/99 80/81/80 82/83/82 
f 99/100/99 82/83/82 84/85/84 
f 99/100/99 84/85/84 86/87/86 
f 99/100/99 86/87/86 88/89/88 
f 99/100/99 88/89/88 90/91/90 
f 99/100/99 90/91/90 92/93/92 
f 99/100/99 92/93/92 94/95/94 
f 99/100/99 94/95/94 96/97/96 
f 99/100/99 96/97/96 98/99/98 
f 99/100/99 98/99/98 68/67/68 
s 8
f 48/46/48 100/101/100 101/102/101 49/47/49 
f 50/48/50 102/103/102 100/101/100 48/46/48 
f 51/49/51 103/104/103 102/103/102 50/48/50 
f 52/50/52 104/105/104 103/104/103 51/49/51 
f 53/51/53 105/106/105 104/107/104 52/52/52 
f 54/53/54 106/108/106 105/106/105 53/51/53 
f 55/54/55 107/109/107 106/108/106 54/53/54 
f 56/55/56 108/110/108 107/109/107 55/54/55 
f 57/56/57 109/111/109 108/110/108 56/55/56 
f 58/57/58 110/112/110 109/111/109 57/56/57 
f 59/58/59 111/113/111 110/112/110 58/57/58 
f 60/59/60 112/114/112 111/113/111 59/58/59 
f 61/60/61 113/115/113 112/114/112 60/59/60 
f 62/61/62 114/116/114 113/115/113 61/60/61 
f 63/62/63 115/117/115 114/116/114 62/61/62 
f 64/63/64 116/118/116 115/117/115 63/62/63 
f 49/47/49 101/102/101 116/118/116 64/63/64 
f 100/101/100 117/119/117 118/120/118 101/102/101 
f 102/103/102 119/121/119 117/119/117 100/101/100 
f 103/104/103 120/122/120 119/121/119 102/103/102 
f 104/105/104 121/123/121 120/122/120 103/104/103 
f 105/106/105 122/124/122 121/125/121 104/107/104 
f 106/108/106 123/126/123 122/124/122 105/106/105 
f 107/109/107 124/127/124 123/126/123 106/108/106 
f 108/110/108 125/128/125 124/127/124 107/109/107 
f 109/111/109 126/129/126 125/128/125 108/110/108 
f 110/112/110 127/130/127 126/129/126 109/111/109 
f 111/113/111 128/131/128 127/130/127 110/112/110 
f 112/114/112 129/132/129 128/131/128 111/113/111 
f 113/115/113 130/133/130 129/132/129 112/114/112 
f 114/116/114 131/134/131 130/133/130 113/115/113 
f 115/117/115 132/135/132 131/134/131 114/116/114 
f 116/118/116 133/136/133 132/135/132 115/117/115 
f 101/102/101 118/120/118 133/136/133 116/118/116 
f 134/137/134 66/65/66 65/64/65 135/138/135 
f 136/139/136 69/68/69 66/65/66 134/137/134 
f 137/140/137 71/70/71 69/68/69 136/139/136 
f 138/141/138 73/72/73 71/70/71 137/140/137 
f 139/142/139 75/75/75 73/74/73 138/143/138 
f 140/144/140 77/78/77 75/75/75 139/142/139 
f 141/145/141 79/80/79 77/78/77 140/144/140 
f 142/146/142 81/82/81 79/80/79 141/145/141 
f 143/147/143 83/84/83 81/82/81 142/146/142 
f 144/148/144 85/86/85 83/84/83 143/147/143 
f 145/149/145 87/88/87 85/86/85 144/148/144 
f 146/150/146 89/90/89 87/88/87 145/149/145 
f 147/151/147 91/92/91 89/90/89 146/150/146 
f 148/152/148 93/94/93 91/92/91 147/151/147 
f 149/153/149 95/96/95 93/94/93 148/152/148 
f 150/154/150 97/98/97 95/96/95 149/153/149 
f 135/138/135 65/64/65 97/98/97 150/154/150 
f 117/119/117 134/137/134 135/138/135 118/120/118 
f 119/121/119 136/139/136 134/137/134 117/119/117 
f 120/122/120 137/140/137 136/139/136 119/121/119 
f 121/123/121 138/141/138 137/140/137 120/122/120 
f 122/124/122 139/142/139 138/143/138 121/125/121 
f 123/126/123 140/144/140 139/142/139 122/124/122 
f 124/127/124 141/145/141 140/144/140 123/126/123 
f 125/128/125 142/146/142 141/145/141 124/127/124 
f 126/129/126 143/147/143 142/146/142 125/128/125 
f 127/130/127 144/148/144 143/147/143 126/129/126 
f 128/131/128 145/149/145 144/148/144 127/130/127 
f 129/132/129 146/150/146 145/149/145 128/131/128 
f 130/133/130 147/151/147 146/150/146 129/132/129 
f 131/134/131 148/152/148 147/151/147 130/133/130 
f 132/135/132 149/153/149 148/152/148 131/134/131 
f 133/136/133 150/154/150 149/153/149 132/135/132 
f 118/120/118 135/138/135 150/154/150 133/136/133 
# 119 polygons - 34 triangles

