# 3ds Max Wavefront OBJ Exporter v0.97b - (c)2007 guruware
# File Created: 08.02.2018 17:36:53

mtllib Fence_01.mtl

#
# object FenceBarBottom001
#

v  -39.3701 23.6220 1.9685
v  -39.3701 23.6220 -1.9685
v  -29.5276 23.6220 -1.9685
v  -29.5276 23.6220 1.9685
v  -39.3701 29.5276 1.9685
v  -29.5276 29.5276 1.9685
v  -29.5276 29.5276 -1.9685
v  -39.3701 29.5276 -1.9685
v  39.3701 23.6220 1.9685
v  39.3701 23.6220 -1.9685
v  39.3701 29.5276 -1.9685
v  39.3701 29.5276 1.9685
v  29.5276 23.6220 -1.9685
v  29.5276 29.5276 -1.9685
v  0.0000 23.6220 -1.9685
v  9.8425 23.6220 -1.9685
v  9.8425 23.6220 1.9685
v  0.0000 23.6220 1.9685
v  0.0000 29.5276 1.9685
v  9.8425 29.5276 1.9685
v  9.8425 29.5276 -1.9685
v  0.0000 29.5276 -1.9685
v  -9.8425 23.6220 -1.9685
v  -9.8425 29.5276 -1.9685
v  -19.6850 23.6220 -1.9685
v  -9.8425 23.6220 1.9685
v  -19.6850 23.6220 1.9685
v  -19.6850 29.5276 1.9685
v  -9.8425 29.5276 1.9685
v  -19.6850 29.5276 -1.9685
v  19.6850 23.6220 -1.9685
v  19.6850 29.5276 -1.9685
v  29.5276 23.6220 1.9685
v  19.6850 23.6220 1.9685
v  19.6850 29.5276 1.9685
v  29.5276 29.5276 1.9685
# 36 vertices

vn -0.5774 -0.5774 0.5774
vn -0.5774 -0.5774 -0.5774
vn 0.0000 -0.7071 -0.7071
vn 0.0000 -0.7071 0.7071
vn -0.5774 0.5774 0.5774
vn 0.0000 0.7071 0.7071
vn 0.0000 0.7071 -0.7071
vn -0.5774 0.5774 -0.5774
vn 0.5774 -0.5774 0.5774
vn 0.5774 -0.5774 -0.5774
vn 0.5774 0.5774 -0.5774
vn 0.5774 0.5774 0.5774
# 12 vertex normals

vt 1.0000 0.0000 0.0000
vt 1.0000 1.0000 0.0000
vt 0.8750 1.0000 0.0000
vt 0.8750 0.0000 0.0000
vt 0.0000 0.0000 0.0000
vt 0.1250 0.0000 0.0000
vt 0.1250 1.0000 0.0000
vt 0.0000 1.0000 0.0000
vt 0.5000 1.0000 0.0000
vt 0.3750 1.0000 0.0000
vt 0.3750 0.0000 0.0000
vt 0.5000 0.0000 0.0000
vt 0.6250 0.0000 0.0000
vt 0.6250 1.0000 0.0000
vt 0.7500 1.0000 0.0000
vt 0.7500 0.0000 0.0000
vt 0.2500 0.0000 0.0000
vt 0.2500 1.0000 0.0000
# 18 texture coords

o FenceBarBottom001
g FenceBarBottom001
usemtl wire_088088225
s 2
f 1/1/1 2/2/2 3/3/3 4/4/4 
s 4
f 5/5/5 6/6/6 7/7/7 8/8/8 
s 8
f 1/5/1 4/6/4 6/7/6 5/8/5 
s 16
f 9/5/9 10/1/10 11/2/11 12/8/12 
s 32
f 10/5/10 13/6/3 14/7/7 11/8/11 
s 64
f 2/5/2 1/1/1 5/2/5 8/8/8 
s 2
f 15/9/3 16/10/3 17/11/4 18/12/4 
s 4
f 19/12/6 20/13/6 21/14/7 22/9/7 
s 8
f 18/12/4 17/13/4 20/14/6 19/9/6 
s 32
f 15/12/3 23/13/3 24/14/7 22/9/7 
s 2
f 25/15/3 23/14/3 26/13/4 27/16/4 
s 4
f 28/17/6 29/11/6 24/10/7 30/18/7 
s 8
f 27/17/4 26/11/4 29/10/6 28/18/6 
s 32
f 31/17/3 16/11/3 21/10/7 32/18/7 
s 2
f 31/18/3 13/7/3 33/6/4 34/17/4 
s 4
f 35/16/6 36/4/6 14/3/7 32/15/7 
s 8
f 34/16/4 33/4/4 36/3/6 35/15/6 
s 32
f 25/16/3 3/4/3 7/3/7 30/15/7 
s 2
f 3/3/3 25/15/3 27/16/4 4/4/4 
s 4
f 6/6/6 28/17/6 30/18/7 7/7/7 
s 8
f 4/6/4 27/17/4 28/18/6 6/7/6 
s 32
f 13/6/3 31/17/3 32/18/7 14/7/7 
s 2
f 16/10/3 31/18/3 34/17/4 17/11/4 
s 4
f 20/13/6 35/16/6 32/15/7 21/14/7 
s 8
f 17/13/4 34/16/4 35/15/6 20/14/6 
s 32
f 23/13/3 25/16/3 30/15/7 24/14/7 
s 2
f 23/14/3 15/9/3 18/12/4 26/13/4 
s 4
f 29/11/6 19/12/6 22/9/7 24/10/7 
s 8
f 26/11/4 18/12/4 19/9/6 29/10/6 
s 32
f 16/11/3 15/12/3 22/9/7 21/10/7 
s 2
f 13/7/3 10/8/10 9/5/9 33/6/4 
s 4
f 36/4/6 12/1/12 11/2/11 14/3/7 
s 8
f 33/4/4 9/1/9 12/2/12 36/3/6 
s 32
f 3/4/3 2/1/2 8/2/8 7/3/7 
# 34 polygons

#
# object FenceBarTop001
#

v  -39.3701 78.7402 1.9685
v  -39.3701 78.7402 -1.9685
v  -29.5276 78.7402 -1.9685
v  -29.5276 78.7402 1.9685
v  -39.3701 84.6457 1.9685
v  -29.5276 84.6457 1.9685
v  -29.5276 84.6457 -1.9685
v  -39.3701 84.6457 -1.9685
v  39.3701 79.1435 1.9685
v  39.3701 79.1435 -1.9685
v  39.3701 84.2423 -1.9685
v  39.3701 84.2423 1.9685
v  29.5276 78.9664 -1.9685
v  29.5276 84.4194 -1.9685
v  0.0000 79.1758 -1.9685
v  9.8425 78.9728 -1.9685
v  9.8425 78.9728 1.9685
v  0.0000 79.1758 1.9685
v  0.0000 84.2100 1.9685
v  9.8425 84.4130 1.9685
v  9.8425 84.4130 -1.9685
v  0.0000 84.2100 -1.9685
v  -9.8425 79.3541 -1.9685
v  -9.8425 84.0318 -1.9685
v  -19.6850 79.0379 -1.9685
v  -9.8425 79.3541 1.9685
v  -19.6850 79.0379 1.9685
v  -19.6850 84.3479 1.9685
v  -9.8425 84.0318 1.9685
v  -19.6850 84.3479 -1.9685
v  19.6850 78.8193 -1.9685
v  19.6850 84.5665 -1.9685
v  29.5276 78.9664 1.9685
v  19.6850 78.8193 1.9685
v  19.6850 84.5665 1.9685
v  29.5276 84.4194 1.9685
# 36 vertices

vn -0.5774 -0.5774 0.5774
vn -0.5774 -0.5774 -0.5774
vn 0.0107 -0.7104 -0.7037
vn 0.0107 -0.7104 0.7037
vn -0.5774 0.5774 0.5774
vn 0.0107 0.7104 0.7037
vn 0.0107 0.7104 -0.7037
vn -0.5774 0.5774 -0.5774
vn 0.5820 -0.5717 0.5783
vn 0.5820 -0.5717 -0.5783
vn 0.5820 0.5717 -0.5783
vn 0.5820 0.5717 0.5783
vn 0.0116 -0.7074 -0.7068
vn 0.0116 0.7074 -0.7068
vn -0.0137 -0.7067 -0.7074
vn -0.0128 -0.7076 -0.7065
vn -0.0128 -0.7076 0.7065
vn -0.0137 -0.7067 0.7074
vn -0.0137 0.7067 0.7074
vn -0.0128 0.7076 0.7065
vn -0.0128 0.7076 -0.7065
vn -0.0137 0.7067 -0.7074
vn 0.0049 -0.7013 -0.7128
vn 0.0049 0.7013 -0.7128
vn 0.0220 -0.7070 -0.7069
vn 0.0049 -0.7013 0.7128
vn 0.0220 -0.7070 0.7069
vn 0.0220 0.7070 0.7069
vn 0.0049 0.7013 0.7128
vn 0.0220 0.7070 -0.7069
vn -0.0002 -0.7105 -0.7037
vn -0.0002 0.7105 -0.7037
vn 0.0116 -0.7074 0.7068
vn -0.0002 -0.7105 0.7037
vn -0.0002 0.7105 0.7037
vn 0.0116 0.7074 0.7068
# 36 vertex normals

vt 1.0000 0.0000 0.0000
vt 1.0000 1.0000 0.0000
vt 0.8750 1.0000 0.0000
vt 0.8750 0.0000 0.0000
vt 0.0000 0.0000 0.0000
vt 0.1250 0.0000 0.0000
vt 0.1250 1.0000 0.0000
vt 0.0000 1.0000 0.0000
vt 0.5000 1.0000 0.0000
vt 0.3750 1.0000 0.0000
vt 0.3750 0.0000 0.0000
vt 0.5000 0.0000 0.0000
vt 0.6250 0.0000 0.0000
vt 0.6250 1.0000 0.0000
vt 0.7500 1.0000 0.0000
vt 0.7500 0.0000 0.0000
vt 0.2500 0.0000 0.0000
vt 0.2500 1.0000 0.0000
# 18 texture coords

o FenceBarTop001
g FenceBarTop001
usemtl wire_088088225
s 2
f 37/19/13 38/20/14 39/21/15 40/22/16 
s 4
f 41/23/17 42/24/18 43/25/19 44/26/20 
s 8
f 37/23/13 40/24/16 42/25/18 41/26/17 
s 16
f 45/23/21 46/19/22 47/20/23 48/26/24 
s 32
f 46/23/22 49/24/25 50/25/26 47/26/23 
s 64
f 38/23/14 37/19/13 41/20/17 44/26/20 
s 2
f 51/27/27 52/28/28 53/29/29 54/30/30 
s 4
f 55/30/31 56/31/32 57/32/33 58/27/34 
s 8
f 54/30/30 53/31/29 56/32/32 55/27/31 
s 32
f 51/30/27 59/31/35 60/32/36 58/27/34 
s 2
f 61/33/37 59/32/35 62/31/38 63/34/39 
s 4
f 64/35/40 65/29/41 60/28/36 66/36/42 
s 8
f 63/35/39 62/29/38 65/28/41 64/36/40 
s 32
f 67/35/43 52/29/28 57/28/33 68/36/44 
s 2
f 67/36/43 49/25/25 69/24/45 70/35/46 
s 4
f 71/34/47 72/22/48 50/21/26 68/33/44 
s 8
f 70/34/46 69/22/45 72/21/48 71/33/47 
s 32
f 61/34/37 39/22/15 43/21/19 66/33/42 
s 2
f 39/21/15 61/33/37 63/34/39 40/22/16 
s 4
f 42/24/18 64/35/40 66/36/42 43/25/19 
s 8
f 40/24/16 63/35/39 64/36/40 42/25/18 
s 32
f 49/24/25 67/35/43 68/36/44 50/25/26 
s 2
f 52/28/28 67/36/43 70/35/46 53/29/29 
s 4
f 56/31/32 71/34/47 68/33/44 57/32/33 
s 8
f 53/31/29 70/34/46 71/33/47 56/32/32 
s 32
f 59/31/35 61/34/37 66/33/42 60/32/36 
s 2
f 59/32/35 51/27/27 54/30/30 62/31/38 
s 4
f 65/29/41 55/30/31 58/27/34 60/28/36 
s 8
f 62/29/38 54/30/30 55/27/31 65/28/41 
s 32
f 52/29/28 51/30/27 58/27/34 57/28/33 
s 2
f 49/25/25 46/26/22 45/23/21 69/24/45 
s 4
f 72/22/48 48/19/24 47/20/23 50/21/26 
s 8
f 69/22/45 45/19/21 48/20/24 72/21/48 
s 32
f 39/22/15 38/19/14 44/20/20 43/21/19 
# 34 polygons

#
# object FencePostL001
#

v  -43.1227 0.0000 3.7527
v  -43.1227 0.0000 -3.7527
v  -35.6174 0.0000 -3.7526
v  -35.6174 0.0000 3.7527
v  -42.8613 98.4252 3.4912
v  -35.8788 98.4252 3.4912
v  -35.8788 98.4252 -3.4912
v  -42.8613 98.4252 -3.4912
v  -36.3377 36.5899 3.0324
v  -36.3241 48.7866 3.0460
v  -42.4161 48.7866 3.0460
v  -42.4025 36.5899 3.0324
v  -36.3377 36.5899 -3.0324
v  -36.3241 48.7866 -3.0460
v  -42.4025 36.5899 -3.0324
v  -42.4161 48.7866 -3.0460
v  -35.0015 97.5732 4.3686
v  -43.7387 97.5732 4.3686
v  -35.0015 97.5732 -4.3686
v  -43.7387 97.5732 -4.3686
v  -35.5224 85.3765 3.8477
v  -43.2178 85.3765 3.8477
v  -35.9164 73.1799 3.4536
v  -42.8237 73.1799 3.4536
v  -36.1837 60.9832 3.1864
v  -42.5565 60.9832 3.1864
v  -42.7558 12.1966 3.3858
v  -35.9843 12.1966 3.3858
v  -42.5158 24.3933 3.1457
v  -36.2244 24.3933 3.1457
v  -35.5224 85.3765 -3.8477
v  -35.9164 73.1799 -3.4536
v  -36.1837 60.9832 -3.1864
v  -35.9843 12.1966 -3.3857
v  -36.2244 24.3933 -3.1457
v  -43.2178 85.3765 -3.8477
v  -42.8237 73.1799 -3.4537
v  -42.5565 60.9832 -3.1864
v  -42.7558 12.1966 -3.3857
v  -42.5158 24.3933 -3.1457
# 40 vertices

vn -0.5851 -0.5616 0.5851
vn -0.5851 -0.5616 -0.5851
vn 0.5851 -0.5616 -0.5851
vn 0.5851 -0.5616 0.5851
vn -0.2945 0.9092 0.2945
vn 0.2945 0.9092 0.2945
vn 0.2945 0.9092 -0.2945
vn -0.2945 0.9092 -0.2945
vn 0.7071 0.0058 0.7071
vn 0.7071 -0.0090 0.7071
vn -0.7071 -0.0090 0.7071
vn -0.7071 0.0058 0.7071
vn 0.7071 0.0058 -0.7071
vn 0.7071 -0.0090 -0.7071
vn -0.7071 0.0058 -0.7071
vn -0.7071 -0.0090 -0.7071
vn 0.6570 0.3696 0.6570
vn -0.6570 0.3696 0.6570
vn 0.6570 0.3696 -0.6570
vn -0.6570 0.3696 -0.6570
vn 0.7061 -0.0531 0.7061
vn -0.7061 -0.0531 0.7061
vn 0.7066 -0.0384 0.7066
vn -0.7066 -0.0384 0.7066
vn 0.7069 -0.0237 0.7069
vn -0.7069 -0.0237 0.7069
vn -0.7067 0.0353 0.7067
vn 0.7067 0.0353 0.7067
vn -0.7070 0.0205 0.7070
vn 0.7070 0.0205 0.7070
vn 0.7061 -0.0531 -0.7061
vn 0.7066 -0.0384 -0.7066
vn 0.7069 -0.0237 -0.7069
vn 0.7067 0.0353 -0.7067
vn 0.7070 0.0205 -0.7070
vn -0.7061 -0.0531 -0.7061
vn -0.7066 -0.0384 -0.7066
vn -0.7069 -0.0237 -0.7069
vn -0.7067 0.0353 -0.7067
vn -0.7070 0.0205 -0.7070
# 40 vertex normals

vt 1.0000 0.0000 0.0000
vt 1.0000 1.0000 0.0000
vt 0.0000 1.0000 0.0000
vt 0.0000 0.0000 0.0000
vt 1.0000 0.3718 0.0000
vt 1.0000 0.4957 0.0000
vt 0.0000 0.4957 0.0000
vt 0.0000 0.3718 0.0000
vt 1.0000 0.9913 0.0000
vt 0.0000 0.9913 0.0000
vt 1.0000 0.8674 0.0000
vt 0.0000 0.8674 0.0000
vt 1.0000 0.7435 0.0000
vt 0.0000 0.7435 0.0000
vt 1.0000 0.6196 0.0000
vt 0.0000 0.6196 0.0000
vt 0.0000 0.1239 0.0000
vt 1.0000 0.1239 0.0000
vt 0.0000 0.2478 0.0000
vt 1.0000 0.2478 0.0000
# 20 texture coords

o FencePostL001
g FencePostL001
usemtl wire_214229166
s 2
f 73/37/49 74/38/50 75/39/51 76/40/52 
s 4
f 77/40/53 78/37/54 79/38/55 80/39/56 
s 8
f 81/41/57 82/42/58 83/43/59 84/44/60 
s 16
f 85/41/61 86/42/62 82/43/58 81/44/57 
s 32
f 87/41/63 88/42/64 86/43/62 85/44/61 
s 64
f 84/41/60 83/42/59 88/43/64 87/44/63 
s 8
f 89/45/65 78/38/54 77/39/53 90/46/66 
s 16
f 91/45/67 79/38/55 78/39/54 89/46/65 
s 32
f 92/45/68 80/38/56 79/39/55 91/46/67 
s 64
f 90/45/66 77/38/53 80/39/56 92/46/68 
s 8
f 93/47/69 89/45/65 90/46/66 94/48/70 
f 95/49/71 93/47/69 94/48/70 96/50/72 
f 97/51/73 95/49/71 96/50/72 98/52/74 
f 82/42/58 97/51/73 98/52/74 83/43/59 
f 99/53/75 73/40/49 76/37/52 100/54/76 
f 101/55/77 99/53/75 100/54/76 102/56/78 
f 84/44/60 101/55/77 102/56/78 81/41/57 
s 16
f 103/47/79 91/45/67 89/46/65 93/48/69 
f 104/49/80 103/47/79 93/48/69 95/50/71 
f 105/51/81 104/49/80 95/50/71 97/52/73 
f 86/42/62 105/51/81 97/52/73 82/43/58 
f 100/53/76 76/40/52 75/37/51 106/54/82 
f 102/55/78 100/53/76 106/54/82 107/56/83 
f 81/44/57 102/55/78 107/56/83 85/41/61 
s 32
f 108/47/84 92/45/68 91/46/67 103/48/79 
f 109/49/85 108/47/84 103/48/79 104/50/80 
f 110/51/86 109/49/85 104/50/80 105/52/81 
f 88/42/64 110/51/86 105/52/81 86/43/62 
f 106/53/82 75/40/51 74/37/50 111/54/87 
f 107/55/83 106/53/82 111/54/87 112/56/88 
f 85/44/61 107/55/83 112/56/88 87/41/63 
s 64
f 94/47/70 90/45/66 92/46/68 108/48/84 
f 96/49/72 94/47/70 108/48/84 109/50/85 
f 98/51/74 96/49/72 109/50/85 110/52/86 
f 83/42/59 98/51/74 110/52/86 88/43/64 
f 111/53/87 74/40/50 73/37/49 99/54/75 
f 112/55/88 111/53/87 99/54/75 101/56/77 
f 87/44/63 112/55/88 101/56/77 84/41/60 
# 38 polygons

#
# object FenceBarMiddle001
#

v  -39.3701 51.1811 1.9685
v  -39.3701 51.1811 -1.9685
v  -29.5276 50.9799 -1.9685
v  -29.5276 50.9799 1.9685
v  -39.3701 57.0866 1.9685
v  -29.5276 57.2878 1.9685
v  -29.5276 57.2878 -1.9685
v  -39.3701 57.0866 -1.9685
v  39.3701 50.5808 1.9685
v  39.3701 50.5808 -1.9685
v  39.3701 57.6869 -1.9685
v  39.3701 57.6869 1.9685
v  29.5276 50.8587 -1.9685
v  29.5276 57.4090 -1.9685
v  0.0000 50.8587 -1.9685
v  9.8425 51.1811 -1.9685
v  9.8425 51.1811 1.9685
v  0.0000 50.8587 1.9685
v  0.0000 57.4090 1.9685
v  9.8425 57.0866 1.9685
v  9.8425 57.0866 -1.9685
v  0.0000 57.4090 -1.9685
v  -9.8425 50.6431 -1.9685
v  -9.8425 57.6246 -1.9685
v  -19.6850 50.8587 -1.9685
v  -9.8425 50.6431 1.9685
v  -19.6850 50.8587 1.9685
v  -19.6850 57.4090 1.9685
v  -9.8425 57.6246 1.9685
v  -19.6850 57.4090 -1.9685
v  19.6850 51.1811 -1.9685
v  19.6850 57.0866 -1.9685
v  29.5276 50.8587 1.9685
v  19.6850 51.1811 1.9685
v  19.6850 57.0866 1.9685
v  29.5276 57.4090 1.9685
# 36 vertices

vn -0.5827 -0.5709 0.5784
vn -0.5827 -0.5709 -0.5784
vn -0.0116 -0.7079 -0.7062
vn -0.0116 -0.7079 0.7062
vn -0.5827 0.5709 0.5784
vn -0.0116 0.7079 0.7062
vn -0.0116 0.7079 -0.7062
vn -0.5827 0.5709 -0.5784
vn 0.5699 -0.5862 0.5759
vn 0.5699 -0.5862 -0.5759
vn 0.5699 0.5862 -0.5759
vn 0.5699 0.5862 0.5759
vn -0.0216 -0.7073 -0.7066
vn -0.0216 0.7073 -0.7066
vn 0.0194 -0.7081 -0.7059
vn 0.0115 -0.7033 -0.7108
vn 0.0115 -0.7033 0.7108
vn 0.0194 -0.7081 0.7059
vn 0.0194 0.7081 0.7059
vn 0.0115 0.7033 0.7108
vn 0.0115 0.7033 -0.7108
vn 0.0194 0.7081 -0.7059
vn 0.0000 -0.7120 -0.7022
vn 0.0000 0.7120 -0.7022
vn -0.0121 -0.7059 -0.7082
vn 0.0000 -0.7120 0.7022
vn -0.0121 -0.7059 0.7082
vn -0.0121 0.7059 0.7082
vn 0.0000 0.7120 0.7022
vn -0.0121 0.7059 -0.7082
vn -0.0115 -0.7033 -0.7108
vn -0.0115 0.7033 -0.7108
vn -0.0216 -0.7073 0.7066
vn -0.0115 -0.7033 0.7108
vn -0.0115 0.7033 0.7108
vn -0.0216 0.7073 0.7066
# 36 vertex normals

vt 1.0000 0.0000 0.0000
vt 1.0000 1.0000 0.0000
vt 0.8750 1.0000 0.0000
vt 0.8750 0.0000 0.0000
vt 0.0000 0.0000 0.0000
vt 0.1250 0.0000 0.0000
vt 0.1250 1.0000 0.0000
vt 0.0000 1.0000 0.0000
vt 0.5000 1.0000 0.0000
vt 0.3750 1.0000 0.0000
vt 0.3750 0.0000 0.0000
vt 0.5000 0.0000 0.0000
vt 0.6250 0.0000 0.0000
vt 0.6250 1.0000 0.0000
vt 0.7500 1.0000 0.0000
vt 0.7500 0.0000 0.0000
vt 0.2500 0.0000 0.0000
vt 0.2500 1.0000 0.0000
# 18 texture coords

o FenceBarMiddle001
g FenceBarMiddle001
usemtl wire_088088225
s 2
f 113/57/89 114/58/90 115/59/91 116/60/92 
s 4
f 117/61/93 118/62/94 119/63/95 120/64/96 
s 8
f 113/61/89 116/62/92 118/63/94 117/64/93 
s 16
f 121/61/97 122/57/98 123/58/99 124/64/100 
s 32
f 122/61/98 125/62/101 126/63/102 123/64/99 
s 64
f 114/61/90 113/57/89 117/58/93 120/64/96 
s 2
f 127/65/103 128/66/104 129/67/105 130/68/106 
s 4
f 131/68/107 132/69/108 133/70/109 134/65/110 
s 8
f 130/68/106 129/69/105 132/70/108 131/65/107 
s 32
f 127/68/103 135/69/111 136/70/112 134/65/110 
s 2
f 137/71/113 135/70/111 138/69/114 139/72/115 
s 4
f 140/73/116 141/67/117 136/66/112 142/74/118 
s 8
f 139/73/115 138/67/114 141/66/117 140/74/116 
s 32
f 143/73/119 128/67/104 133/66/109 144/74/120 
s 2
f 143/74/119 125/63/101 145/62/121 146/73/122 
s 4
f 147/72/123 148/60/124 126/59/102 144/71/120 
s 8
f 146/72/122 145/60/121 148/59/124 147/71/123 
s 32
f 137/72/113 115/60/91 119/59/95 142/71/118 
s 2
f 115/59/91 137/71/113 139/72/115 116/60/92 
s 4
f 118/62/94 140/73/116 142/74/118 119/63/95 
s 8
f 116/62/92 139/73/115 140/74/116 118/63/94 
s 32
f 125/62/101 143/73/119 144/74/120 126/63/102 
s 2
f 128/66/104 143/74/119 146/73/122 129/67/105 
s 4
f 132/69/108 147/72/123 144/71/120 133/70/109 
s 8
f 129/69/105 146/72/122 147/71/123 132/70/108 
s 32
f 135/69/111 137/72/113 142/71/118 136/70/112 
s 2
f 135/70/111 127/65/103 130/68/106 138/69/114 
s 4
f 141/67/117 131/68/107 134/65/110 136/66/112 
s 8
f 138/67/114 130/68/106 131/65/107 141/66/117 
s 32
f 128/67/104 127/68/103 134/65/110 133/66/109 
s 2
f 125/63/101 122/64/98 121/61/97 145/62/121 
s 4
f 148/60/124 124/57/100 123/58/99 126/59/102 
s 8
f 145/60/121 121/57/97 124/58/100 148/59/124 
s 32
f 115/60/91 114/57/90 120/58/96 119/59/95 
# 34 polygons

#
# object FencePostL010
#

v  36.3061 0.0000 3.7527
v  36.3061 0.0000 -3.7527
v  43.8114 0.0000 -3.7526
v  43.8114 0.0000 3.7527
v  36.5675 98.4252 3.4912
v  43.5500 98.4252 3.4912
v  43.5500 98.4252 -3.4912
v  36.5675 98.4252 -3.4912
v  43.0912 36.5899 3.0324
v  43.1047 48.7866 3.0460
v  37.0127 48.7866 3.0460
v  37.0263 36.5899 3.0324
v  43.0912 36.5899 -3.0324
v  43.1047 48.7866 -3.0460
v  37.0263 36.5899 -3.0324
v  37.0127 48.7866 -3.0460
v  44.4273 97.5732 4.3686
v  35.6901 97.5732 4.3686
v  44.4273 97.5732 -4.3686
v  35.6901 97.5732 -4.3686
v  43.9064 85.3765 3.8477
v  36.2110 85.3765 3.8477
v  43.5124 73.1799 3.4536
v  36.6051 73.1799 3.4536
v  43.2451 60.9832 3.1864
v  36.8723 60.9832 3.1864
v  36.6730 12.1966 3.3858
v  43.4445 12.1966 3.3858
v  36.9131 24.3933 3.1457
v  43.2044 24.3933 3.1457
v  43.9064 85.3765 -3.8477
v  43.5124 73.1799 -3.4536
v  43.2451 60.9832 -3.1864
v  43.4445 12.1966 -3.3857
v  43.2044 24.3933 -3.1457
v  36.2110 85.3765 -3.8477
v  36.6051 73.1799 -3.4537
v  36.8723 60.9832 -3.1864
v  36.6730 12.1966 -3.3857
v  36.9131 24.3933 -3.1457
# 40 vertices

vn -0.5851 -0.5616 0.5851
vn -0.5851 -0.5616 -0.5851
vn 0.5851 -0.5616 -0.5851
vn 0.5851 -0.5616 0.5851
vn -0.2945 0.9092 0.2945
vn 0.2945 0.9092 0.2945
vn 0.2945 0.9092 -0.2945
vn -0.2945 0.9092 -0.2945
vn 0.7071 0.0058 0.7071
vn 0.7071 -0.0090 0.7071
vn -0.7071 -0.0090 0.7071
vn -0.7071 0.0058 0.7071
vn 0.7071 0.0058 -0.7071
vn 0.7071 -0.0090 -0.7071
vn -0.7071 0.0058 -0.7071
vn -0.7071 -0.0090 -0.7071
vn 0.6570 0.3696 0.6570
vn -0.6570 0.3696 0.6570
vn 0.6570 0.3696 -0.6570
vn -0.6570 0.3696 -0.6570
vn 0.7061 -0.0531 0.7061
vn -0.7061 -0.0531 0.7061
vn 0.7066 -0.0384 0.7066
vn -0.7066 -0.0384 0.7066
vn 0.7069 -0.0237 0.7069
vn -0.7069 -0.0237 0.7069
vn -0.7067 0.0353 0.7067
vn 0.7067 0.0353 0.7067
vn -0.7070 0.0205 0.7070
vn 0.7070 0.0205 0.7070
vn 0.7061 -0.0531 -0.7061
vn 0.7066 -0.0384 -0.7066
vn 0.7069 -0.0237 -0.7069
vn 0.7067 0.0353 -0.7067
vn 0.7070 0.0205 -0.7070
vn -0.7061 -0.0531 -0.7061
vn -0.7066 -0.0384 -0.7066
vn -0.7069 -0.0237 -0.7069
vn -0.7067 0.0353 -0.7067
vn -0.7070 0.0205 -0.7070
# 40 vertex normals

vt 1.0000 0.0000 0.0000
vt 1.0000 1.0000 0.0000
vt 0.0000 1.0000 0.0000
vt 0.0000 0.0000 0.0000
vt 1.0000 0.3718 0.0000
vt 1.0000 0.4957 0.0000
vt 0.0000 0.4957 0.0000
vt 0.0000 0.3718 0.0000
vt 1.0000 0.9913 0.0000
vt 0.0000 0.9913 0.0000
vt 1.0000 0.8674 0.0000
vt 0.0000 0.8674 0.0000
vt 1.0000 0.7435 0.0000
vt 0.0000 0.7435 0.0000
vt 1.0000 0.6196 0.0000
vt 0.0000 0.6196 0.0000
vt 0.0000 0.1239 0.0000
vt 1.0000 0.1239 0.0000
vt 0.0000 0.2478 0.0000
vt 1.0000 0.2478 0.0000
# 20 texture coords

o FencePostL010
g FencePostL010
usemtl wire_214229166
s 2
f 149/75/125 150/76/126 151/77/127 152/78/128 
s 4
f 153/78/129 154/75/130 155/76/131 156/77/132 
s 8
f 157/79/133 158/80/134 159/81/135 160/82/136 
s 16
f 161/79/137 162/80/138 158/81/134 157/82/133 
s 32
f 163/79/139 164/80/140 162/81/138 161/82/137 
s 64
f 160/79/136 159/80/135 164/81/140 163/82/139 
s 8
f 165/83/141 154/76/130 153/77/129 166/84/142 
s 16
f 167/83/143 155/76/131 154/77/130 165/84/141 
s 32
f 168/83/144 156/76/132 155/77/131 167/84/143 
s 64
f 166/83/142 153/76/129 156/77/132 168/84/144 
s 8
f 169/85/145 165/83/141 166/84/142 170/86/146 
f 171/87/147 169/85/145 170/86/146 172/88/148 
f 173/89/149 171/87/147 172/88/148 174/90/150 
f 158/80/134 173/89/149 174/90/150 159/81/135 
f 175/91/151 149/78/125 152/75/128 176/92/152 
f 177/93/153 175/91/151 176/92/152 178/94/154 
f 160/82/136 177/93/153 178/94/154 157/79/133 
s 16
f 179/85/155 167/83/143 165/84/141 169/86/145 
f 180/87/156 179/85/155 169/86/145 171/88/147 
f 181/89/157 180/87/156 171/88/147 173/90/149 
f 162/80/138 181/89/157 173/90/149 158/81/134 
f 176/91/152 152/78/128 151/75/127 182/92/158 
f 178/93/154 176/91/152 182/92/158 183/94/159 
f 157/82/133 178/93/154 183/94/159 161/79/137 
s 32
f 184/85/160 168/83/144 167/84/143 179/86/155 
f 185/87/161 184/85/160 179/86/155 180/88/156 
f 186/89/162 185/87/161 180/88/156 181/90/157 
f 164/80/140 186/89/162 181/90/157 162/81/138 
f 182/91/158 151/78/127 150/75/126 187/92/163 
f 183/93/159 182/91/158 187/92/163 188/94/164 
f 161/82/137 183/93/159 188/94/164 163/79/139 
s 64
f 170/85/146 166/83/142 168/84/144 184/86/160 
f 172/87/148 170/85/146 184/86/160 185/88/161 
f 174/89/150 172/87/148 185/88/161 186/90/162 
f 159/80/135 174/89/150 186/90/162 164/81/140 
f 187/91/163 150/78/126 149/75/125 175/92/151 
f 188/93/164 187/91/163 175/92/151 177/94/153 
f 163/82/139 188/93/164 177/94/153 160/79/136 
# 38 polygons

